<svg xmlns="http://www.w3.org/2000/svg" width="512" height="512" viewBox="0 0 512 512"><path d="M352.475 312.06c-7.61 0-15.01-1.528-21.987-4.542l8.197-18.99c4.376 1.89 9.015 2.846 13.79 2.846 3.912 0 7.766-.65 11.452-1.936l6.803 19.533c-5.88 2.05-12.022 3.09-18.255 3.09zm-191.732-.388c-6.57 0-13.026-1.152-19.186-3.424l7.152-19.406c3.86 1.424 7.91 2.145 12.032 2.145 4.562 0 9.01-.877 13.223-2.605l7.855 19.135c-6.715 2.756-13.807 4.155-21.077 4.155zM312.95 297.92l-29.136-16.592 10.235-17.975 29.136 16.592-10.236 17.975zm-113.324-.346l-10.633-17.742 28.76-17.236 10.634 17.744-28.76 17.234zm68.777-24.722c-4.266-1.78-8.776-2.686-13.407-2.686-4.053.002-8.04.7-11.845 2.078l-7.036-19.45c6.07-2.196 12.42-3.31 18.88-3.312 7.383 0 14.573 1.44 21.378 4.28l-7.97 19.09zm128.652-2.87c-9.39 0-17 7.61-17 17s7.61 17 17 17 17-7.61 17-17-7.612-17-17-17zm-282 0c-9.39 0-17 7.61-17 17s7.61 17 17 17 17-7.61 17-17-7.612-17-17-17zM462 115.305c0-35.98-29.17-65.152-65.152-65.152-35.983 0-65.155 29.172-65.155 65.152 0 53.506 51.245 59.164 65.155 140.542C410.758 174.467 462 168.81 462 115.305zm-88.52-1.58c0-12.904 10.46-23.366 23.367-23.366 12.904 0 23.365 10.46 23.365 23.366 0 12.903-10.46 23.364-23.365 23.364-12.906 0-23.366-10.46-23.366-23.364zm58.47 124.816v143.452l-74.962 40.703v-90.213h-15.023v88.572l-81.806-52.91v-75.412h-14.33v75.412l-79.8 52.91v-88.572h-15.027v90.213L80.05 381.992V155.06L151.003 193v75.982h15.027V193.69l79.8-41.385v78.927h14.33v-78.927l70.95 35.894c-10.294-12.97-21.006-27.42-26.202-47.19l-51.913-26.41-93.81 48.743L50 105.243V399.52l109.185 62.328 93.81-62.32 95.815 62.32L462 399.52V188.932l-1.983 2.487c-10.782 13.498-21.106 26.436-28.067 47.12z"/></svg>